<?xml version="1.0" encoding="UTF-8"?>
<svg id="Layer_1" data-name="Layer 1" xmlns="http://www.w3.org/2000/svg" viewBox="0 0 1229.43 351.61">
  <defs>
    <style>
      .cls-1 {
        fill: #fff;
      }

      .cls-2 {
        fill: #af358a;
      }
    </style>
  </defs>
  <path class="cls-1" d="m1228.66,196.29c.44-5.62.72-9.87.77-12.73,0-.61,0-1.21-.05-1.82,0-1.22-.06-2.37-.11-3.53-.33-5.84-1.16-11.58-2.48-17.09-.17-1.05-.44-2.09-.72-3.14-.39-1.43-.77-2.87-1.27-4.3-.39-1.37-.88-2.75-1.38-4.13-2.31-6.56-5.35-12.84-8.99-18.74-.82-1.38-1.7-2.76-2.64-4.08-12.07-17.8-29.66-31.64-50.32-38.97-2.41-.87-4.82-1.66-7.3-2.36-.36-.1-.72-.2-1.07-.29-.28-.05-.61-.16-.99-.22-1.43-.39-2.87-.72-4.36-.99-1.49-.33-2.97-.61-4.52-.83-1.38-.22-2.7-.44-4.08-.55-2.04-.28-4.08-.44-6.17-.55-1.26-.05-2.59-.11-3.91-.11-.61-.05-1.27-.05-1.93-.05-1.54,0-3.09.05-4.63.11-1.54.05-3.03.16-4.52.33-.05-.05-.11,0-.16,0-1.77.11-3.47.33-5.18.61-1.22.16-2.43.38-3.64.61-2.53.38-5.02.93-7.44,1.54-9.81,2.54-19.01,6.51-27.5,11.64-1.38.82-2.76,1.76-4.13,2.64-1.38.93-2.7,1.87-4.02,2.87-1.22.93-2.48,1.87-3.64,2.81-.05.11-.16.17-.22.22-2.54,2.1-4.96,4.3-7.28,6.61-1.16,1.16-2.26,2.31-3.36,3.53-1.1,1.16-2.1,2.37-3.14,3.58,0,.05-.06.11-.11.16-1.05,1.21-2.04,2.53-3.03,3.86-.88,1.16-1.77,2.37-2.65,3.64-.61.94-1.21,1.87-1.82,2.81-.55.83-1.05,1.65-1.54,2.53-1.38,2.32-2.65,4.63-3.81,7-.61,1.22-1.16,2.43-1.71,3.64-.55,1.21-1.05,2.42-1.54,3.64-1.54,3.81-2.81,7.72-3.92,11.68-.28,1.16-.55,2.26-.77,3.42-.39,1.6-.72,3.2-.99,4.85-.22,1.22-.44,2.43-.61,3.69-.39,2.75-.66,5.57-.83,8.38-.11,1.93-.16,3.91-.16,5.9,0,1.77.05,3.53.11,5.29.16,3.03.44,6.07.88,9.04,0,.11.05.28.05.39.11.77.22,1.54.39,2.31.16,1.22.39,2.43.66,3.58.27,1.54.66,3.03.99,4.52.11.28.17.55.22.82.83,3.14,1.82,6.23,2.92,9.26.55,1.54,1.16,3.09,1.82,4.63.66,1.49,1.32,3.03,2.04,4.52.72,1.49,1.49,2.98,2.26,4.41.83,1.44,1.6,2.87,2.48,4.3.83,1.37,1.71,2.75,2.59,4.08.06.06.11.06.11.11.88,1.37,1.82,2.7,2.81,3.97.99,1.32,1.99,2.58,3.03,3.85.16.17.28.33.39.5,1.98,2.37,4.08,4.63,6.23,6.78,2.31,2.31,4.74,4.52,7.28,6.61,1.27,1.05,2.53,2.04,3.86,3.03,2.64,1.99,5.35,3.81,8.16,5.51,1.43.83,2.81,1.65,4.24,2.48,1.49.77,2.98,1.54,4.46,2.26,1.49.72,3.03,1.37,4.58,2.04,4.36,1.87,8.87,3.42,13.5,4.63.61.16,1.27.33,1.87.5,2.87.72,5.84,1.27,8.77,1.76,2.92.44,5.84.72,8.87.94l2.21.11c1.49.06,3.03.11,4.58.11,2.97,0,5.95-.11,8.87-.39,1.43-.16,2.87-.27,4.24-.49,1.43-.16,2.81-.39,4.19-.61,2.81-.5,5.57-1.1,8.27-1.77,2.7-.72,5.35-1.54,7.99-2.42,3.91-1.38,7.72-2.98,11.41-4.75,1.22-.61,2.43-1.21,3.64-1.87,1.21-.66,2.37-1.33,3.52-2.04,1.16-.66,2.31-1.37,3.47-2.15,1.16-.72,2.26-1.49,3.37-2.26,2.2-1.54,4.35-3.2,6.45-4.96h.05v-.05l-35.09-42.15c-8.09,7.15-18.73,11.49-30.39,11.49-21.85,0-40.18-15.3-44.83-35.76h146.36Zm-101.53-63.22c19.67,0,36.49,12.41,43.04,29.81h-86.08c6.53-17.4,23.33-29.81,43.05-29.81Z"/>
  <path class="cls-1" d="m744.52,183.91c0,21.14-6.42,40.78-17.43,57.07-.26.39-.53.78-.79,1.17-18.41,26.73-49.23,44.26-84.14,44.26-6.43,0-12.72-.6-18.81-1.73-1.16-.22-2.31-.45-3.46-.71-1.45-.32-2.9-.68-4.33-1.06-.21-.06-.42-.11-.62-.18-14.43-3.98-27.58-11.05-38.7-20.46l.26-.38,35.45-52.57.38-.56,4.28-6.35c2.67,4.16,6.45,7.55,10.91,9.76,1.16.58,2.37,1.07,3.61,1.48.25.08.5.16.75.23.26.08.51.15.77.22.25.07.51.13.77.19.01,0,.02,0,.03,0,.44.1.88.19,1.34.27.12.02.23.04.35.06.17.04.34.06.51.08.05,0,.08.01.13.02.17.03.34.05.52.07.18.02.36.04.54.06.23.03.45.04.68.06.02,0,.04,0,.06,0,.21.02.43.03.65.04.14.01.28.02.42.02.04,0,.08,0,.12,0,.05,0,.11,0,.16,0,.21,0,.42.01.63.01h.07c.22,0,.43,0,.64-.01h.13c.07,0,.13,0,.19-.01.09,0,.18-.01.27-.02.15,0,.31-.01.46-.02.26-.02.53-.04.79-.06.02,0,.04,0,.06,0,1.89-.18,3.78-.56,5.67-1.16,4.44-1.41,8.28-3.85,11.32-6.97.8-.81,1.54-1.68,2.22-2.58l.17-.29c.54-.73,1.04-1.49,1.51-2.28,2.41-4.07,3.8-8.84,3.8-13.92,0-2.78-.42-5.46-1.19-7.98,2.33,8.48.13-.03-1.23-3.28,0-.01-.01-.02-.01-.03-.48-1.13-1.01-2.21-1.63-3.25,0-.01-.01-.02-.02-.03-.04-.07-.08-.13-.12-.2-.59-.99-1.25-1.94-1.96-2.84-.02-.03-.03-.05-.05-.07-5.02-6.34-12.77-10.4-21.49-10.4-10.06,0-18.85,5.42-23.61,13.51-.08.13-.16.26-.23.39l-21.05,31.24-30.16,44.74-.25.38-.5.75-68.12,101.04h-94.53l152.83-218.43s.92-1.23,1.3-1.86h0c.51-.82,1.01-1.64,1.54-2.44.22-.34.44-.69.67-1.03.02-.04.05-.07.07-.11,1.74-2.63,3.59-5.18,5.56-7.63,0-.01.01-.02.01-.02l1.9-2.71c7.29-8.76,16.22-16.1,26.78-21.92,15.01-8.68,32.44-13.64,51.02-13.64,28.85,0,54.91,11.96,73.47,31.21.16.16.32.32.47.49,12.21,12.61,20.39,27.03,24.51,43.26,0,.01.01.02.01.04,1.92,6.97,3.11,14.24,3.5,21.72v.02c.09,1.78.14,3.57.14,5.37Z"/>
  <path class="cls-2" d="m202.82,249.49l33.13,87.17-.03.09-.09-.03c-4.34,1.68-8.71,3.15-13.11,4.41-2.2.63-4.4,1.26-6.66,1.77-2.28.61-4.54,1.11-6.77,1.54-2.26.51-4.48.94-6.8,1.33-2.32.39-4.6.7-6.89,1-6.91.8-13.91,1.27-20.97,1.32-4.74-.05-9.45-.18-14.19-.52-4.71-.43-9.47-.98-14.27-1.73-2.33-.41-4.67-.81-7.07-1.34-2.33-.41-4.7-1.03-7.1-1.55-4.85-1.17-9.7-2.64-14.48-4.29-2.48-.85-4.93-1.79-7.29-2.71l-3.48-1.39c-4.75-2.03-9.3-4.09-13.76-6.41-4.54-2.36-8.9-4.95-13.11-7.68-.88-.6-1.86-1.24-2.74-1.83-6.77-4.51-13.19-9.49-19.16-14.91-2.11-1.92-4.23-3.83-6.23-5.81-2-1.98-3.97-4.04-5.93-6.11-1.85-2.12-3.61-4.21-5.45-6.33-3.61-4.22-7.04-8.66-10.08-13.37-1.58-2.33-3.07-4.62-4.52-7.01-2.92-4.77-5.6-9.65-8.04-14.66-2.07-4.09-3.88-8.25-5.56-12.51-.24-.61-.48-1.22-.71-1.83-.08-.33-.17-.65-.34-1.01-.99-2.62-1.88-5.21-2.75-7.88-.89-2.59-1.67-5.24-2.32-7.94.03-.08-.06-.11-.11-.24-.69-2.61-1.35-5.31-1.91-7.98-.62-2.8-1.08-5.53-1.61-8.29-.45-2.73-.87-5.55-1.19-8.34-.33-2.79-.54-5.63-.78-8.39-.21-2.85-.33-5.66-.36-8.46-.19-5.51.01-10.99.42-16.5.07-.48.13-.95.1-1.45.29-2.58.49-5.18.91-7.82.19-2.02.51-4.09.92-6.12.16-1.34.41-2.64.66-3.94.06-.18.07-.48.13-.65.94-5.03,2.17-10.06,3.58-15.02.89-2.87,1.77-5.73,2.75-8.57,1.1-3.19,2.28-6.35,3.52-9.39,1.82-4.43,3.82-8.8,5.96-13.02.97-1.94,1.99-3.77,3.02-5.6,1.36-2.51,2.77-4.89,4.28-7.25.99-1.74,2.04-3.36,3.13-5.07,3.96-5.77,8.16-11.36,12.75-16.63,1.47-1.68,2.94-3.35,4.49-4.99,1.56-1.65,3.11-3.29,4.76-4.91,3.17-3.17,6.49-6.19,9.98-9.15,1.29-1.15,2.54-2.2,3.89-3.22,1.49-1.18,2.98-2.34,4.48-3.51,2.12-1.55,4.21-3.02,6.26-4.39,2.33-1.58,4.65-3.16,7.01-4.53.12-.06.24-.12.27-.2,2.04-1.19,4-2.39,6.06-3.51.32-.17.65-.35.97-.52,2.44-1.34,4.85-2.59,7.35-3.81,5-2.45,10.12-4.65,15.36-6.61.12-.06.33-.09.47-.24,2.38-.86,4.93-1.67,7.4-2.51,2.68-.86,5.32-1.64,8.05-2.38,2.7-.66,5.44-1.4,8.11-1.97C153.32.44,170.2-.79,187.19.5c.18.06.38.03.56.1,4.23.36,8.53.85,12.82,1.63,2.07.32,4.14.63,6.18,1.04,2.9.5,5.77,1.09,8.67,1.88.09.03.21-.03.26.09,2.48.56,4.94,1.2,7.45,1.97,2.51.77,5.03,1.53,7.51,2.38,1.06.37,2.13.73,3.07,1.15,2.13.73,4.22,1.55,6.23,2.34,3.31,1.34,6.49,2.73,9.62,4.3,2.16.94,4.16,2.03,6.25,3.14,2.36,1.21,4.6,2.47,6.81,3.83,2.24,1.26,4.36,2.59,6.45,4,.59.3,1.06.67,1.48.91,4.18,2.82,8.24,5.7,12.01,8.88,19.98,15.89,35.95,35.88,47.1,58.23-28.62,10.08-57.03,20.22-85.71,29.45-9.14-15.3-23.51-27.57-41.65-33.81-.92-.31-1.83-.61-2.75-.89-40.08-12.17-82.88,9.54-96.58,49.4l-3.89,11.32c-14.01,40.76,7.74,85.3,48.51,99.32,18.74,6.44,38.24,5.35,55.21-1.67Z"/>
  <rect class="cls-1" x="773" y="86.95" width="72.66" height="193.77"/>
  <path class="cls-2" d="m775.03,59.22h0s31.2,0,31.2,0c22.72,0,41.14-18.42,41.14-41.14h0s-31.2,0-31.2,0c-22.72,0-41.14,18.42-41.14,41.14Z"/>
  <path class="cls-1" d="m972.59,82.87c-25.56,0-45.95,8.32-61.24,24.96-15.28,16.64-22.95,38.99-22.95,66.95v105.94h72.71v-91.91c0-20.23,6.58-30.35,19.8-30.35,4.19,0,8.76,1.41,13.81,4.3v-77.77c-9.08-1.41-16.42-2.12-22.13-2.12Z"/>
  <path class="cls-1" d="m526.81,49.79c-3.87-.93-24.61-5.16-52.76,2.63-16.04,4.45-31.55,11.97-46.11,22.36-17.2,12.27-33.08,28.59-47.2,48.52-13.07,18.43-23.68,35.96-33.05,51.41-28.23,46.59-50.6,82.04-104.75,75.57l26.43,69.84c35.95-4.04,65.02-16.85,88.82-39.13,20.58-19.26,35.26-43.49,50.8-69.14,9.17-15.13,18.64-30.78,30.22-47.1,35.01-49.37,68.9-45.51,71.82-45.08-.17-.04-.47-.1-.91-.2l16.71-69.68Z"/>
  <path class="cls-1" d="m336.17,95.65c-2.93,1.76-5.84,3.56-8.8,5.26-47.55,27.32-95.09,54.64-142.65,81.93-2.79,1.6-5.64,3.09-8.56,4.36-10.49,4.56-21.6-.23-25.27-10.81-3.76-10.81,1.55-23.51,12.31-27.97,5.27-2.18,10.64-4,16.04-5.74,2.91-.93,5.83-1.84,8.74-2.77l148.18-44.27Z"/>
</svg>