<?xml version="1.0" encoding="UTF-8"?><svg id="Layer_1" xmlns="http://www.w3.org/2000/svg" viewBox="0 0 846.99 247.88"><defs><style>.cls-1{fill:#fff;stroke-width:0px;}</style></defs><path class="cls-1" d="M169.66,59.92c31.26,0,47.85,11.21,47.85,32.77,0,31.25-19.61,53.88-70.91,53.88H12.31l35.13-37.07h109.28c12.07,0,17.24-3.88,17.24-12.29,0-5.82-4.53-8.62-13.58-8.62h-78.67c-32.76,0-47.42-13.79-47.42-34.7C34.3,24.57,54.34,2.37,104.78,2.37h125.23l-35.35,37.51h-100.01c-12.07,0-17.24,3.23-17.24,11.85,0,5.82,4.53,8.19,13.79,8.19h78.46Z"/><path class="cls-1" d="M420.11,2.37l-35.78,37.51h-51.3l-18.97,106.69h-44.62l18.75-106.69h-67.68L256.29,2.37h163.81Z"/><path class="cls-1" d="M582.19,109.5l-35.35,37.07h-138.81L433.68,2.37h166.83l-35.57,37.51h-93.33l-3.02,17.24h114.02l-31.04,32.76h-88.81l-3.45,19.62h122.86Z"/><path class="cls-1" d="M706.33,56.04c7.54,19.61,12.5,33.41,15.74,43.11,6.47-10.13,14.01-20.69,30.61-42.89l30.39-40.95c6.68-9.05,15.3-15.3,27.16-15.3,11.21,0,19.83,6.47,21.34,19.83l14.23,126.74h-44.4l-4.96-50.22c-1.51-16.38-2.37-28.02-2.59-39.66-6.47,10.13-14.01,21.12-27.37,39.87l-25.65,36.21c-10.13,14.23-17.67,16.17-28.45,16.17s-17.68-1.94-22.85-16.17l-12.93-36.43c-7.11-19.83-10.35-29.96-13.15-39.66-4.31,10.56-10.13,24.36-16.81,39.66l-22.42,50.22h-43.76l59.49-126.74c6.47-13.36,17.67-19.83,28.88-19.83s18.1,5.82,21.77,15.3l15.73,40.74Z"/><path class="cls-1" d="M118.81,199.01c0,32.94-21.8,48.87-66.71,48.87-34.61,0-52.1-10.78-52.1-34.02,0-32.94,21.8-48.75,66.71-48.75,34.61,0,52.1,10.66,52.1,33.9ZM93.9,201.53c0-12.93-9.1-15.57-30.9-15.57-32.22,0-38.09,4.91-38.09,25.51,0,12.93,9.22,15.57,30.78,15.57,32.22,0,38.21-5.03,38.21-25.51Z"/><path class="cls-1" d="M195.24,243.57l-41.32-44.08-8.26,47.07h-22.52l11.62-66.47c1.8-10.66,8.86-14.97,16.29-14.97,2.99,0,5.99.72,9.22,4.31l41.32,44.08,8.38-47.07h22.52l-11.86,66.35c-1.92,10.66-8.98,15.09-16.17,15.09-3.35,0-5.87-.72-9.22-4.31Z"/><path class="cls-1" d="M392.64,166.43l-19.88,20.84h-28.51l-10.54,59.29h-24.79l10.42-59.29h-37.61l19.88-20.84h91.03Z"/><path class="cls-1" d="M491.59,246.56h-33.18l-14.13-21.2h-38.09l-3.71,21.2h-24.79l7.19-40.96h69.71c8.26,0,15.45-3.95,15.45-10.42,0-5.27-4.55-7.9-12.22-7.9h-69.71l19.88-20.84h51.5c16.77,0,36.65,5.15,36.65,24.31,0,14.49-10.42,26.71-25.87,29.7,2.27,2.03,4.79,4.91,9.22,10.54l12.1,15.57Z"/><path class="cls-1" d="M534.36,246.56l18.69-20.6h20c4.91,0,10.42,0,14.25.24-1.68-2.87-4.19-7.78-6.11-11.62l-10.66-21.2-46.95,53.18h-29.34l64.2-72.46c4.19-4.67,9.82-8.98,17.61-8.98s11.62,3.95,14.25,8.98l37.25,72.46h-93.18Z"/><path class="cls-1" d="M729.6,225.96l-19.52,20.6h-40.24c-25.03,0-41.68-15.09-41.68-35.33,0-26.35,25.15-44.79,55.82-44.79h56.17l-19.64,20.84h-40.24c-14.73,0-27.19,9.46-27.19,22.16,0,9.94,8.26,16.53,20.36,16.53h56.17Z"/><path class="cls-1" d="M835.73,246.56h-37.49l-20.48-21.08c-7.07-7.19-10.3-10.66-12.46-13.42l-1.68,11.5-4.07,23h-24.91l14.25-80.13h24.79l-3.23,18.57c-.96,4.91-2.16,9.82-2.99,14.01,3.59-2.87,8.74-6.95,17.01-13.06l26.59-19.52h35.93l-34.61,23c-12.22,8.03-17.73,11.62-23.36,14.73,3.95,3.12,9.34,7.55,18.21,15.93l28.51,26.47Z"/></svg>